<?xml version="1.0" encoding="utf-8"?>
<!-- Generator: Adobe Illustrator 24.0.3, SVG Export Plug-In . SVG Version: 6.00 Build 0)  -->
<svg version="1.1" id="Capa_1" xmlns="http://www.w3.org/2000/svg" xmlns:xlink="http://www.w3.org/1999/xlink" x="0px" y="0px"
	 viewBox="0 0 54 54" style="enable-background:new 0 0 54 54;" xml:space="preserve">
<style type="text/css">
	.st0{fill:#376E81;}
	.st1{fill:#16505E;}
	.st2{fill:#FFFFFF;}
</style>
<g>
	<g>
		<path class="st0" d="M1,27L1,27C1,12.6,12.6,1,27,1l0,0c14.4,0,26,11.6,26,26l0,0c0,14.4-11.6,26-26,26l0,0C12.6,53,1,41.4,1,27z"
			/>
		<path class="st1" d="M27,54C12.1,54,0,41.9,0,27S12.1,0,27,0s27,12.1,27,27S41.9,54,27,54z M27,2C13.2,2,2,13.2,2,27
			s11.2,25,25,25s25-11.2,25-25S40.8,2,27,2z"/>
	</g>
	<path class="st2" d="M27,35c-0.4,0-0.9-0.2-1.2-0.5L14.3,23c-0.4-0.4-0.4-1,0-1.4s1-0.4,1.4,0L27,32.9l11.3-11.3
		c0.4-0.4,1-0.4,1.4,0s0.4,1,0,1.4L28.2,34.5C27.9,34.8,27.4,35,27,35z"/>
</g>
</svg>
